<svg xmlns="http://www.w3.org/2000/svg" viewBox="0 0 1200 560" role="img" aria-label="Primary run: provider tokens by task"><rect width="100%" height="100%" fill="white"/><text x="220" y="30" font-family="Arial,sans-serif" font-size="20" font-weight="bold">Primary run: provider tokens by task</text><line x1="220" y1="440" x2="1165" y2="440" stroke="#e5e7eb"/><text x="210" y="445" text-anchor="end" font-family="Arial" font-size="12" fill="#4b5563">0</text><line x1="220" y1="344.5" x2="1165" y2="344.5" stroke="#e5e7eb"/><text x="210" y="349.5" text-anchor="end" font-family="Arial" font-size="12" fill="#4b5563">5,853</text><line x1="220" y1="249" x2="1165" y2="249" stroke="#e5e7eb"/><text x="210" y="254" text-anchor="end" font-family="Arial" font-size="12" fill="#4b5563">11,705</text><line x1="220" y1="153.5" x2="1165" y2="153.5" stroke="#e5e7eb"/><text x="210" y="158.5" text-anchor="end" font-family="Arial" font-size="12" fill="#4b5563">17,558</text><line x1="220" y1="58" x2="1165" y2="58" stroke="#e5e7eb"/><text x="210" y="63" text-anchor="end" font-family="Arial" font-size="12" fill="#4b5563">23,411</text><rect x="230.5" y="397.5857728670691" width="24" height="42.414227132930876" fill="#2563eb"/><title>Lattice: 2599.3333333333335</title><rect x="260.5" y="438.68373391046816" width="24" height="1.3162660895318368" fill="#ea580c"/><title>Standard: 80.66666666666667</title><rect x="290.5" y="71.04300034172462" width="24" height="368.9569996582754" fill="#16a34a"/><title>Naive: 22611.333333333332</title><text x="272.5" y="462" text-anchor="middle" transform="rotate(-35 272.5 462)" font-family="Arial" font-size="11">default cursor model</text><rect x="335.5" y="398.11336712609636" width="24" height="41.886632873903636" fill="#2563eb"/><title>Lattice: 2567</title><rect x="365.5" y="438.66197744617835" width="24" height="1.338022553821645" fill="#ea580c"/><title>Standard: 82</title><rect x="395.5" y="71.72832896685276" width="24" height="368.27167103314724" fill="#16a34a"/><title>Naive: 22569.333333333332</title><text x="377.5" y="462" text-anchor="middle" transform="rotate(-35 377.5 462)" font-family="Arial" font-size="11">cli email env</text><rect x="440.5" y="398.5920093404716" width="24" height="41.40799065952842" fill="#2563eb"/><title>Lattice: 2537.6666666666665</title><rect x="470.5" y="438.7109294908304" width="24" height="1.289070509169619" fill="#ea580c"/><title>Standard: 79</title><rect x="500.5" y="72.03835858298214" width="24" height="367.96164141701786" fill="#16a34a"/><title>Naive: 22550.333333333332</title><text x="482.5" y="462" text-anchor="middle" transform="rotate(-35 482.5 462)" font-family="Arial" font-size="11">cli default nest</text><rect x="545.5" y="397.950193643923" width="24" height="42.049806356077" fill="#2563eb"/><title>Lattice: 2577</title><rect x="575.5" y="438.6782947943957" width="24" height="1.321705205604303" fill="#ea580c"/><title>Standard: 81</title><rect x="605.5" y="72.0220412347648" width="24" height="367.9779587652352" fill="#16a34a"/><title>Naive: 22551.333333333332</title><text x="587.5" y="462" text-anchor="middle" transform="rotate(-35 587.5 462)" font-family="Arial" font-size="11">openrouter header</text><rect x="650.5" y="398.20583209932795" width="24" height="41.79416790067205" fill="#2563eb"/><title>Lattice: 2561.3333333333335</title><rect x="680.5" y="438.74356418726506" width="24" height="1.256435812734935" fill="#ea580c"/><title>Standard: 77</title><rect x="710.5" y="72.12538444014126" width="24" height="367.87461555985874" fill="#16a34a"/><title>Naive: 22545</title><text x="692.5" y="462" text-anchor="middle" transform="rotate(-35 692.5 462)" font-family="Arial" font-size="11">cli auth exit code</text><rect x="755.5" y="255.05373618863194" width="24" height="184.94626381136806" fill="#2563eb"/><title>Lattice: 11334.333333333334</title><rect x="785.5" y="298.35453924137147" width="24" height="141.64546075862853" fill="#ea580c"/><title>Standard: 8680.666666666666</title><rect x="815.5" y="58" width="24" height="382" fill="#16a34a"/><title>Naive: 23410.666666666668</title><text x="797.5" y="462" text-anchor="middle" transform="rotate(-35 797.5 462)" font-family="Arial" font-size="11">add top p flag</text><rect x="860.5" y="433.9081899988609" width="24" height="6.091810001139095" fill="#2563eb"/><title>Lattice: 373.3333333333333</title><rect x="890.5" y="438.9720070623078" width="24" height="1.0279929376922041" fill="#ea580c"/><title>Standard: 63</title><rect x="920.5" y="72.35382731518399" width="24" height="367.646172684816" fill="#16a34a"/><title>Naive: 22531</title><text x="902.5" y="462" text-anchor="middle" transform="rotate(-35 902.5 462)" font-family="Arial" font-size="11">arithmetic</text><rect x="965.5" y="433.6906253559631" width="24" height="6.309374644036893" fill="#2563eb"/><title>Lattice: 386.6666666666667</title><rect x="995.5" y="438.4716083836428" width="24" height="1.5283916163572258" fill="#ea580c"/><title>Standard: 93.66666666666667</title><rect x="1025.5" y="72.25592322587994" width="24" height="367.74407677412006" fill="#16a34a"/><title>Naive: 22537</title><text x="1007.5" y="462" text-anchor="middle" transform="rotate(-35 1007.5 462)" font-family="Arial" font-size="11">remainder</text><rect x="1070.5" y="406.4515320651555" width="24" height="33.548467934844496" fill="#2563eb"/><title>Lattice: 2056</title><rect x="1100.5" y="438.59670805330904" width="24" height="1.4032919466909561" fill="#ea580c"/><title>Standard: 86</title><rect x="1130.5" y="71.97852830618524" width="24" height="368.02147169381476" fill="#16a34a"/><title>Naive: 22554</title><text x="1112.5" y="462" text-anchor="middle" transform="rotate(-35 1112.5 462)" font-family="Arial" font-size="11">sequence</text><rect x="220" y="530" width="16" height="16" fill="#2563eb"/><text x="243" y="543" font-family="Arial" font-size="13">Lattice</text><rect x="350" y="530" width="16" height="16" fill="#ea580c"/><text x="373" y="543" font-family="Arial" font-size="13">Standard</text><rect x="480" y="530" width="16" height="16" fill="#16a34a"/><text x="503" y="543" font-family="Arial" font-size="13">Naive</text></svg>
