<?xml version="1.0" encoding="UTF-8"?>
<svg xmlns="http://www.w3.org/2000/svg" viewBox="0 0 240 360" role="img" aria-label="Scale-Invariant Chromosomal Electrodynamics ·…">
  <defs>
    <linearGradient id="bg" x1="0%" y1="0%" x2="100%" y2="100%">
      <stop offset="0%" stop-color="#081008"/>
      <stop offset="55%" stop-color="#143020"/>
      <stop offset="100%" stop-color="#1e4828"/>
    </linearGradient>
    <radialGradient id="glow" cx="50%" cy="38%" r="70%">
      <stop offset="0%" stop-color="#8fd4a0" stop-opacity="0.42"/>
      <stop offset="100%" stop-color="#081008" stop-opacity="0"/>
    </radialGradient>
    <filter id="soft"><feGaussianBlur stdDeviation="1.2"/></filter>
  </defs>
  <rect width="240" height="360" fill="url(#bg)"/>
  <ellipse cx="65" cy="103" rx="100" ry="80" fill="url(#glow)"/>
  <g opacity="0.88" filter="url(#soft)">
        <path d="M95 93 Q115 113 95 133 T95 193" fill="none" stroke="#8fd4a0" stroke-width="2.5" opacity="0.75"/>
        <path d="M145 93 Q125 113 145 133 T145 193" fill="none" stroke="#8fd4a0" stroke-width="2.5" opacity="0.45"/>
        <line x1="95" y1="85" x2="145" y2="85" stroke="#8fd4a0" stroke-width="1" opacity="0.35"/><line x1="95" y1="107" x2="145" y2="107" stroke="#8fd4a0" stroke-width="1" opacity="0.35"/><line x1="95" y1="129" x2="145" y2="129" stroke="#8fd4a0" stroke-width="1" opacity="0.35"/><line x1="95" y1="151" x2="145" y2="151" stroke="#8fd4a0" stroke-width="1" opacity="0.35"/><line x1="95" y1="173" x2="145" y2="173" stroke="#8fd4a0" stroke-width="1" opacity="0.35"/></g>
  <g opacity="0.95">
        <path d="M95 93 Q115 113 95 133 T95 193" fill="none" stroke="#8fd4a0" stroke-width="2.5" opacity="0.75"/>
        <path d="M145 93 Q125 113 145 133 T145 193" fill="none" stroke="#8fd4a0" stroke-width="2.5" opacity="0.45"/>
        <line x1="95" y1="85" x2="145" y2="85" stroke="#8fd4a0" stroke-width="1" opacity="0.35"/><line x1="95" y1="107" x2="145" y2="107" stroke="#8fd4a0" stroke-width="1" opacity="0.35"/><line x1="95" y1="129" x2="145" y2="129" stroke="#8fd4a0" stroke-width="1" opacity="0.35"/><line x1="95" y1="151" x2="145" y2="151" stroke="#8fd4a0" stroke-width="1" opacity="0.35"/><line x1="95" y1="173" x2="145" y2="173" stroke="#8fd4a0" stroke-width="1" opacity="0.35"/></g>
  <rect x="0" y="260" width="240" height="100" fill="url(#bg)" opacity="0.35"/>
</svg>