<?xml version="1.0" encoding="UTF-8"?>
<svg xmlns="http://www.w3.org/2000/svg" viewBox="0 0 240 360" role="img" aria-label="Synthio · MRI cloud-antenna one-pager">
  <defs>
    <linearGradient id="bg" x1="0%" y1="0%" x2="100%" y2="100%">
      <stop offset="0%" stop-color="#120810"/>
      <stop offset="55%" stop-color="#2a1438"/>
      <stop offset="100%" stop-color="#4a2060"/>
    </linearGradient>
    <radialGradient id="glow" cx="50%" cy="38%" r="70%">
      <stop offset="0%" stop-color="#e8a8d8" stop-opacity="0.42"/>
      <stop offset="100%" stop-color="#120810" stop-opacity="0"/>
    </radialGradient>
    <filter id="soft"><feGaussianBlur stdDeviation="1.2"/></filter>
  </defs>
  <rect width="240" height="360" fill="url(#bg)"/>
  <ellipse cx="50" cy="121" rx="100" ry="80" fill="url(#glow)"/>
  <g opacity="0.88" filter="url(#soft)">
        <ellipse cx="120" cy="120" rx="32" ry="14" fill="none" stroke="#e8a8d8" stroke-width="1.6" opacity="0.8" transform="rotate(4 120 120)"/><ellipse cx="120" cy="120" rx="48" ry="21" fill="none" stroke="#e8a8d8" stroke-width="1.6" opacity="0.65" transform="rotate(16 120 120)"/><ellipse cx="120" cy="120" rx="64" ry="28" fill="none" stroke="#e8a8d8" stroke-width="1.6" opacity="0.5" transform="rotate(28 120 120)"/><ellipse cx="120" cy="120" rx="80" ry="35" fill="none" stroke="#e8a8d8" stroke-width="1.6" opacity="0.3500000000000001" transform="rotate(40 120 120)"/>
        <circle cx="120" cy="120" r="6" fill="#e8a8d8" opacity="0.9"/></g>
  <g opacity="0.95">
        <rect x="62" y="72" width="116" height="88" rx="14" fill="none" stroke="#e8a8d8" stroke-width="2" opacity="0.55"/>
        <ellipse cx="120" cy="116" rx="38" ry="52" fill="none" stroke="#e8a8d8" stroke-width="2" opacity="0.7"/>
        <line x1="62" y1="109" x2="178" y2="109" stroke="#e8a8d8" stroke-width="2.5" opacity="0.85"/></g>
  <rect x="0" y="260" width="240" height="100" fill="url(#bg)" opacity="0.35"/>
</svg>